<mxfile host="app.diagrams.net" modified="2023-03-18T12:18:30.242Z" agent="5.0 (Macintosh; Intel Mac OS X 10_15_7) AppleWebKit/537.36 (KHTML, like Gecko) Chrome/110.0.0.0 Safari/537.36" etag="icuUQKp58VgBXyrHk0a-" version="20.8.22" type="github">
  <diagram id="OjbAfD4WJxaJ-n6F3qPU" name="Page-1">
    <mxGraphModel dx="2985" dy="1885" grid="1" gridSize="10" guides="1" tooltips="1" connect="1" arrows="1" fold="1" page="1" pageScale="1" pageWidth="850" pageHeight="1100" math="0" shadow="0">
      <root>
        <mxCell id="0" />
        <mxCell id="1" parent="0" />
      </root>
    </mxGraphModel>
  </diagram>
</mxfile>
